# xmcd
#
# Track frame offsets: 
#        187
#        14982
#        27940
#        36517
#        48132
#        61382
#        73117
#        82162
#        95212
#        112395
#        125337
#        135952
#        147382
#        158755
#        176215
#        185597
#        197350
#        210705
#
# Disc length: 2997 seconds
#
# Revision: 2
# Processed by: cddbd v1.5.2PL0 Copyright (c) Steve Scherf et al.
# Submitted via: ExactAudioCopy v1.0b3
#
DISCID=170bb312
DTITLE=Paul Mauriat - ポール・モーリアのホワイト・クリスマス
DYEAR=1980
DGENRE=Easy Listening
TTITLE0=White Christmas
TTITLE1=Jingle Bells
TTITLE2=O Tannenbaum (樅の木)
TTITLE3=Rudolph, The Red-Nosed Reindeer (赤鼻のトナカイ)
TTITLE4=Tombe La Neige (雪が降る)
TTITLE5=Adeste Fideles
TTITLE6=Il Est Ne Le Divin Enfant (主イエス生れ給う)
TTITLE7=Gloria, In Excelsis Deo (あら野のはてに)
TTITLE8=Snow Desert (雪のクリスマス)
TTITLE9=Douce Nuit, Saint Nuit (聖しこの夜)
TTITLE10=Petit Papa Noel (サンタクロースの歌)
TTITLE11=Trois Anges Sont Venus Ce Soir (三人の天使)
TTITLE12=Santa Claus is Comin' to Town (サンタが町にやって来る)
TTITLE13=Minuit! Chretiens (真夜中のミサ)
TTITLE14=Rin, Rin
TTITLE15=Jours En France (白い恋人たち)
TTITLE16=Mother of Mine (ママに捧げる歌)
TTITLE17=For Never and Always (蛍の光 )
EXTD=
EXTT0=
EXTT1=
EXTT2=
EXTT3=
EXTT4=
EXTT5=
EXTT6=
EXTT7=
EXTT8=
EXTT9=
EXTT10=
EXTT11=
EXTT12=
EXTT13=
EXTT14=
EXTT15=
EXTT16=
EXTT17=
PLAYORDER=
